<mxfile host="app.diagrams.net" modified="2023-12-23T18:22:36.634Z" agent="Mozilla/5.0 (Windows NT 10.0; Win64; x64) AppleWebKit/537.36 (KHTML, like Gecko) Chrome/120.0.0.0 Safari/537.36" etag="ZQrk7Q2PDEAVaUE7LzEy" version="22.1.11" type="github">
  <diagram name="Página-1" id="SS0KaEW65HmHxnwdi14k">
    <mxGraphModel dx="2049" dy="1103" grid="1" gridSize="10" guides="1" tooltips="1" connect="1" arrows="1" fold="1" page="1" pageScale="1" pageWidth="827" pageHeight="1169" math="0" shadow="0">
      <root>
        <mxCell id="0" />
        <mxCell id="1" parent="0" />
        <mxCell id="REtOvarT4Qf_jJN79Ttz-2" value="" style="verticalLabelPosition=bottom;verticalAlign=top;html=1;shape=mxgraph.basic.rect;fillColor2=none;strokeWidth=1;size=20;indent=5;" vertex="1" parent="1">
          <mxGeometry x="90" y="120" width="740" height="890" as="geometry" />
        </mxCell>
        <mxCell id="REtOvarT4Qf_jJN79Ttz-3" value="&lt;font style=&quot;font-size: 24px;&quot;&gt;Front&lt;/font&gt;" style="text;html=1;strokeColor=none;fillColor=none;align=center;verticalAlign=middle;whiteSpace=wrap;rounded=0;" vertex="1" parent="1">
          <mxGeometry x="90" y="120" width="320" height="30" as="geometry" />
        </mxCell>
        <mxCell id="REtOvarT4Qf_jJN79Ttz-4" value="" style="verticalLabelPosition=bottom;verticalAlign=top;html=1;shape=mxgraph.basic.rect;fillColor2=none;strokeWidth=1;size=20;indent=5;" vertex="1" parent="1">
          <mxGeometry x="110" y="190" width="90" height="120" as="geometry" />
        </mxCell>
        <mxCell id="REtOvarT4Qf_jJN79Ttz-5" value="&lt;font style=&quot;font-size: 18px;&quot;&gt;Sign In&lt;/font&gt;" style="text;html=1;strokeColor=none;fillColor=none;align=center;verticalAlign=middle;whiteSpace=wrap;rounded=0;" vertex="1" parent="1">
          <mxGeometry x="125" y="190" width="60" height="30" as="geometry" />
        </mxCell>
        <mxCell id="REtOvarT4Qf_jJN79Ttz-6" value="" style="verticalLabelPosition=bottom;verticalAlign=top;html=1;shape=mxgraph.basic.rect;fillColor2=none;strokeWidth=1;size=20;indent=5;" vertex="1" parent="1">
          <mxGeometry x="220" y="190" width="90" height="120" as="geometry" />
        </mxCell>
        <mxCell id="REtOvarT4Qf_jJN79Ttz-7" value="&lt;font style=&quot;font-size: 18px;&quot;&gt;Sign Up&lt;/font&gt;" style="text;html=1;strokeColor=none;fillColor=none;align=center;verticalAlign=middle;whiteSpace=wrap;rounded=0;" vertex="1" parent="1">
          <mxGeometry x="227.5" y="190" width="75" height="30" as="geometry" />
        </mxCell>
        <mxCell id="REtOvarT4Qf_jJN79Ttz-9" value="-Mail&lt;br&gt;-Contraseña" style="text;html=1;strokeColor=none;fillColor=none;align=left;verticalAlign=middle;whiteSpace=wrap;rounded=0;" vertex="1" parent="1">
          <mxGeometry x="110" y="240" width="80" height="30" as="geometry" />
        </mxCell>
        <mxCell id="REtOvarT4Qf_jJN79Ttz-11" value="-nombre&lt;br&gt;-Mail&lt;br&gt;-Contraseña" style="text;html=1;strokeColor=none;fillColor=none;align=left;verticalAlign=middle;whiteSpace=wrap;rounded=0;" vertex="1" parent="1">
          <mxGeometry x="220" y="235" width="80" height="40" as="geometry" />
        </mxCell>
        <mxCell id="REtOvarT4Qf_jJN79Ttz-13" value="" style="verticalLabelPosition=bottom;verticalAlign=top;html=1;shape=mxgraph.basic.rect;fillColor2=none;strokeWidth=1;size=20;indent=5;" vertex="1" parent="1">
          <mxGeometry x="110" y="335" width="150" height="85" as="geometry" />
        </mxCell>
        <mxCell id="REtOvarT4Qf_jJN79Ttz-14" value="&lt;font style=&quot;font-size: 18px;&quot;&gt;Header&lt;/font&gt;" style="text;html=1;strokeColor=none;fillColor=none;align=center;verticalAlign=middle;whiteSpace=wrap;rounded=0;" vertex="1" parent="1">
          <mxGeometry x="155" y="335" width="60" height="30" as="geometry" />
        </mxCell>
        <mxCell id="REtOvarT4Qf_jJN79Ttz-15" value="&lt;div style=&quot;&quot;&gt;-Home&lt;/div&gt;&lt;div style=&quot;&quot;&gt;-Trabajos iniciados&lt;/div&gt;&lt;div style=&quot;&quot;&gt;-Trabajos finalizados&lt;/div&gt;&lt;div style=&quot;&quot;&gt;-SignIn/Up/out&lt;/div&gt;" style="text;html=1;strokeColor=none;fillColor=none;align=left;verticalAlign=middle;whiteSpace=wrap;rounded=0;" vertex="1" parent="1">
          <mxGeometry x="115" y="350" width="115" height="80" as="geometry" />
        </mxCell>
        <mxCell id="REtOvarT4Qf_jJN79Ttz-16" value="" style="verticalLabelPosition=bottom;verticalAlign=top;html=1;shape=mxgraph.basic.rect;fillColor2=none;strokeWidth=1;size=20;indent=5;" vertex="1" parent="1">
          <mxGeometry x="110" y="430" width="150" height="90" as="geometry" />
        </mxCell>
        <mxCell id="REtOvarT4Qf_jJN79Ttz-17" value="&lt;font style=&quot;font-size: 18px;&quot;&gt;Footer&lt;/font&gt;" style="text;html=1;strokeColor=none;fillColor=none;align=center;verticalAlign=middle;whiteSpace=wrap;rounded=0;" vertex="1" parent="1">
          <mxGeometry x="155" y="430" width="60" height="30" as="geometry" />
        </mxCell>
        <mxCell id="REtOvarT4Qf_jJN79Ttz-18" value="&lt;div style=&quot;&quot;&gt;-Home&lt;/div&gt;&lt;div style=&quot;&quot;&gt;-Trabajos iniciados&lt;/div&gt;&lt;div style=&quot;&quot;&gt;-Trabajos finalizados&lt;br&gt;-Contacto conmigo&lt;/div&gt;&lt;div style=&quot;&quot;&gt;&lt;br&gt;&lt;/div&gt;" style="text;html=1;strokeColor=none;fillColor=none;align=left;verticalAlign=middle;whiteSpace=wrap;rounded=0;" vertex="1" parent="1">
          <mxGeometry x="115" y="450" width="115" height="80" as="geometry" />
        </mxCell>
        <mxCell id="REtOvarT4Qf_jJN79Ttz-19" value="" style="verticalLabelPosition=bottom;verticalAlign=top;html=1;shape=mxgraph.basic.rect;fillColor2=none;strokeWidth=1;size=20;indent=5;" vertex="1" parent="1">
          <mxGeometry x="110" y="535" width="150" height="90" as="geometry" />
        </mxCell>
        <mxCell id="REtOvarT4Qf_jJN79Ttz-20" value="&lt;span style=&quot;font-size: 18px;&quot;&gt;Home&lt;/span&gt;" style="text;html=1;strokeColor=none;fillColor=none;align=center;verticalAlign=middle;whiteSpace=wrap;rounded=0;" vertex="1" parent="1">
          <mxGeometry x="155" y="535" width="60" height="30" as="geometry" />
        </mxCell>
        <mxCell id="REtOvarT4Qf_jJN79Ttz-21" value="&lt;div style=&quot;&quot;&gt;- Iniciar nuevo trabajo&lt;/div&gt;&lt;div style=&quot;&quot;&gt;-Trabajos iniciados&lt;/div&gt;&lt;div style=&quot;&quot;&gt;-Trabajos finalizados&lt;br&gt;-Trabajos Pendientes&lt;/div&gt;&lt;div style=&quot;&quot;&gt;&lt;br&gt;&lt;/div&gt;" style="text;html=1;strokeColor=none;fillColor=none;align=left;verticalAlign=middle;whiteSpace=wrap;rounded=0;" vertex="1" parent="1">
          <mxGeometry x="115" y="555" width="125" height="80" as="geometry" />
        </mxCell>
        <mxCell id="REtOvarT4Qf_jJN79Ttz-22" value="" style="verticalLabelPosition=bottom;verticalAlign=top;html=1;shape=mxgraph.basic.rect;fillColor2=none;strokeWidth=1;size=20;indent=5;" vertex="1" parent="1">
          <mxGeometry x="310" y="335" width="150" height="105" as="geometry" />
        </mxCell>
        <mxCell id="REtOvarT4Qf_jJN79Ttz-23" value="&lt;span style=&quot;font-size: 18px;&quot;&gt;Trabajos Iniciados&lt;/span&gt;" style="text;html=1;strokeColor=none;fillColor=none;align=center;verticalAlign=middle;whiteSpace=wrap;rounded=0;" vertex="1" parent="1">
          <mxGeometry x="354" y="350" width="60" height="30" as="geometry" />
        </mxCell>
        <mxCell id="REtOvarT4Qf_jJN79Ttz-24" value="&lt;div style=&quot;&quot;&gt;-Lista de trabajos&lt;/div&gt;&lt;div style=&quot;&quot;&gt;-Boton &quot;detalle trabajo&quot;&lt;/div&gt;" style="text;html=1;strokeColor=none;fillColor=none;align=left;verticalAlign=middle;whiteSpace=wrap;rounded=0;" vertex="1" parent="1">
          <mxGeometry x="320" y="365" width="125" height="80" as="geometry" />
        </mxCell>
        <mxCell id="REtOvarT4Qf_jJN79Ttz-25" value="" style="verticalLabelPosition=bottom;verticalAlign=top;html=1;shape=mxgraph.basic.rect;fillColor2=none;strokeWidth=1;size=20;indent=5;" vertex="1" parent="1">
          <mxGeometry x="310" y="450" width="150" height="105" as="geometry" />
        </mxCell>
        <mxCell id="REtOvarT4Qf_jJN79Ttz-26" value="&lt;span style=&quot;font-size: 18px;&quot;&gt;Trabajos Finalizados&lt;/span&gt;" style="text;html=1;strokeColor=none;fillColor=none;align=center;verticalAlign=middle;whiteSpace=wrap;rounded=0;" vertex="1" parent="1">
          <mxGeometry x="354" y="465" width="60" height="30" as="geometry" />
        </mxCell>
        <mxCell id="REtOvarT4Qf_jJN79Ttz-27" value="&lt;div style=&quot;&quot;&gt;-Lista de trabajos&lt;/div&gt;&lt;div style=&quot;&quot;&gt;-Boton &quot;detalle trabajo&quot;&lt;/div&gt;" style="text;html=1;strokeColor=none;fillColor=none;align=left;verticalAlign=middle;whiteSpace=wrap;rounded=0;" vertex="1" parent="1">
          <mxGeometry x="320" y="480" width="125" height="80" as="geometry" />
        </mxCell>
        <mxCell id="REtOvarT4Qf_jJN79Ttz-28" value="" style="verticalLabelPosition=bottom;verticalAlign=top;html=1;shape=mxgraph.basic.rect;fillColor2=none;strokeWidth=1;size=20;indent=5;" vertex="1" parent="1">
          <mxGeometry x="310" y="580" width="150" height="210" as="geometry" />
        </mxCell>
        <mxCell id="REtOvarT4Qf_jJN79Ttz-29" value="&lt;span style=&quot;font-size: 18px;&quot;&gt;Detalle Trabajo&lt;/span&gt;" style="text;html=1;strokeColor=none;fillColor=none;align=center;verticalAlign=middle;whiteSpace=wrap;rounded=0;" vertex="1" parent="1">
          <mxGeometry x="354" y="595" width="60" height="30" as="geometry" />
        </mxCell>
        <mxCell id="REtOvarT4Qf_jJN79Ttz-30" value="&lt;div style=&quot;&quot;&gt;-Toda la info del trabajo realizado&lt;/div&gt;&lt;div style=&quot;&quot;&gt;por Ejemplo: Precio cobrado, descripcion, etc&lt;/div&gt;&lt;div style=&quot;&quot;&gt;&lt;b&gt;SOLO MODIFICABLE CUANDO NO ESTÁ FINALIZADO Y ES ROL DE ADMIN / SUPERVISOR&lt;/b&gt;&lt;/div&gt;" style="text;html=1;strokeColor=none;fillColor=none;align=left;verticalAlign=middle;whiteSpace=wrap;rounded=0;" vertex="1" parent="1">
          <mxGeometry x="321.5" y="670" width="125" height="80" as="geometry" />
        </mxCell>
        <mxCell id="REtOvarT4Qf_jJN79Ttz-31" value="" style="verticalLabelPosition=bottom;verticalAlign=top;html=1;shape=mxgraph.basic.rect;fillColor2=none;strokeWidth=1;size=20;indent=5;" vertex="1" parent="1">
          <mxGeometry x="480" y="335" width="150" height="105" as="geometry" />
        </mxCell>
        <mxCell id="REtOvarT4Qf_jJN79Ttz-32" value="&lt;span style=&quot;font-size: 18px;&quot;&gt;Trabajos Pendientes&lt;/span&gt;" style="text;html=1;strokeColor=none;fillColor=none;align=center;verticalAlign=middle;whiteSpace=wrap;rounded=0;" vertex="1" parent="1">
          <mxGeometry x="524" y="350" width="60" height="30" as="geometry" />
        </mxCell>
        <mxCell id="REtOvarT4Qf_jJN79Ttz-33" value="&lt;div style=&quot;&quot;&gt;-Lista de trabajos&lt;/div&gt;&lt;div style=&quot;&quot;&gt;-Boton &quot;detalle trabajo&quot;&lt;/div&gt;" style="text;html=1;strokeColor=none;fillColor=none;align=left;verticalAlign=middle;whiteSpace=wrap;rounded=0;" vertex="1" parent="1">
          <mxGeometry x="490" y="365" width="125" height="80" as="geometry" />
        </mxCell>
        <mxCell id="REtOvarT4Qf_jJN79Ttz-37" value="" style="curved=1;endArrow=classic;html=1;rounded=0;exitX=1.02;exitY=0.724;exitDx=0;exitDy=0;exitPerimeter=0;entryX=0;entryY=0.75;entryDx=0;entryDy=0;" edge="1" parent="1" source="REtOvarT4Qf_jJN79Ttz-25" target="REtOvarT4Qf_jJN79Ttz-33">
          <mxGeometry width="50" height="50" relative="1" as="geometry">
            <mxPoint x="540" y="540" as="sourcePoint" />
            <mxPoint x="590" y="490" as="targetPoint" />
            <Array as="points">
              <mxPoint x="500" y="480" />
              <mxPoint x="420" y="410" />
            </Array>
          </mxGeometry>
        </mxCell>
        <mxCell id="REtOvarT4Qf_jJN79Ttz-40" value="" style="endArrow=classic;html=1;rounded=0;" edge="1" parent="1">
          <mxGeometry width="50" height="50" relative="1" as="geometry">
            <mxPoint x="480" y="500" as="sourcePoint" />
            <mxPoint x="590" y="490" as="targetPoint" />
          </mxGeometry>
        </mxCell>
        <mxCell id="REtOvarT4Qf_jJN79Ttz-41" value="&lt;b&gt;Mismo&lt;br&gt;Layout&lt;/b&gt;" style="text;html=1;strokeColor=none;fillColor=none;align=center;verticalAlign=middle;whiteSpace=wrap;rounded=0;" vertex="1" parent="1">
          <mxGeometry x="584" y="475" width="80" height="30" as="geometry" />
        </mxCell>
        <mxCell id="REtOvarT4Qf_jJN79Ttz-46" value="" style="verticalLabelPosition=bottom;verticalAlign=top;html=1;shape=mxgraph.basic.rect;fillColor2=none;strokeWidth=1;size=20;indent=5;" vertex="1" parent="1">
          <mxGeometry x="310" y="800" width="150" height="150" as="geometry" />
        </mxCell>
        <mxCell id="REtOvarT4Qf_jJN79Ttz-47" value="&lt;span style=&quot;font-size: 18px;&quot;&gt;Iniciar Trabajo&lt;/span&gt;" style="text;html=1;strokeColor=none;fillColor=none;align=center;verticalAlign=middle;whiteSpace=wrap;rounded=0;" vertex="1" parent="1">
          <mxGeometry x="354" y="815" width="60" height="30" as="geometry" />
        </mxCell>
        <mxCell id="REtOvarT4Qf_jJN79Ttz-48" value="&lt;div style=&quot;&quot;&gt;-Toda la info del trabajo realizado&lt;/div&gt;&lt;div style=&quot;&quot;&gt;por Ejemplo: Precio cobrado, descripcion, etc&lt;/div&gt;&lt;div style=&quot;&quot;&gt;&lt;b&gt;MODIFICABLE&lt;/b&gt;&lt;/div&gt;" style="text;html=1;strokeColor=none;fillColor=none;align=left;verticalAlign=middle;whiteSpace=wrap;rounded=0;" vertex="1" parent="1">
          <mxGeometry x="321.5" y="860" width="125" height="80" as="geometry" />
        </mxCell>
        <mxCell id="REtOvarT4Qf_jJN79Ttz-49" value="&lt;b&gt;Mismo&lt;br&gt;Layout&lt;/b&gt;" style="text;html=1;strokeColor=none;fillColor=none;align=center;verticalAlign=middle;whiteSpace=wrap;rounded=0;" vertex="1" parent="1">
          <mxGeometry x="670" y="770" width="60" height="30" as="geometry" />
        </mxCell>
        <mxCell id="REtOvarT4Qf_jJN79Ttz-55" value="" style="endArrow=none;dashed=1;html=1;rounded=0;exitX=0.447;exitY=-0.019;exitDx=0;exitDy=0;exitPerimeter=0;entryX=0.649;entryY=0.218;entryDx=0;entryDy=0;entryPerimeter=0;" edge="1" parent="1" source="REtOvarT4Qf_jJN79Ttz-31" target="REtOvarT4Qf_jJN79Ttz-2">
          <mxGeometry width="50" height="50" relative="1" as="geometry">
            <mxPoint x="390" y="410" as="sourcePoint" />
            <mxPoint x="440" y="360" as="targetPoint" />
          </mxGeometry>
        </mxCell>
        <mxCell id="REtOvarT4Qf_jJN79Ttz-57" value="Finalizados pero no se realizó el envio/ pago del cliente" style="text;html=1;strokeColor=none;fillColor=none;align=center;verticalAlign=middle;whiteSpace=wrap;rounded=0;" vertex="1" parent="1">
          <mxGeometry x="560" y="260" width="150" height="30" as="geometry" />
        </mxCell>
        <mxCell id="REtOvarT4Qf_jJN79Ttz-58" value="" style="endArrow=none;dashed=1;html=1;dashPattern=1 3;strokeWidth=2;rounded=0;exitX=1.007;exitY=0.943;exitDx=0;exitDy=0;exitPerimeter=0;entryX=0;entryY=0.5;entryDx=0;entryDy=0;" edge="1" parent="1" source="REtOvarT4Qf_jJN79Ttz-25" target="REtOvarT4Qf_jJN79Ttz-59">
          <mxGeometry width="50" height="50" relative="1" as="geometry">
            <mxPoint x="390" y="510" as="sourcePoint" />
            <mxPoint x="440" y="460" as="targetPoint" />
          </mxGeometry>
        </mxCell>
        <mxCell id="REtOvarT4Qf_jJN79Ttz-59" value="Solo usuarios con rol de admin/ supervisor puede modificar los trabajos para cambiarles el estado de pendiente a finalizado" style="text;html=1;strokeColor=none;fillColor=none;align=center;verticalAlign=middle;whiteSpace=wrap;rounded=0;" vertex="1" parent="1">
          <mxGeometry x="555" y="535" width="185" height="30" as="geometry" />
        </mxCell>
        <mxCell id="REtOvarT4Qf_jJN79Ttz-73" value="" style="verticalLabelPosition=bottom;verticalAlign=top;html=1;shape=mxgraph.basic.rect;fillColor2=none;strokeWidth=1;size=20;indent=0;" vertex="1" parent="1">
          <mxGeometry x="584" y="780" width="10" height="10" as="geometry" />
        </mxCell>
        <mxCell id="REtOvarT4Qf_jJN79Ttz-74" value="" style="endArrow=classic;html=1;rounded=0;exitX=0.993;exitY=0.333;exitDx=0;exitDy=0;exitPerimeter=0;" edge="1" parent="1" source="REtOvarT4Qf_jJN79Ttz-46">
          <mxGeometry width="50" height="50" relative="1" as="geometry">
            <mxPoint x="390" y="830" as="sourcePoint" />
            <mxPoint x="580" y="790" as="targetPoint" />
          </mxGeometry>
        </mxCell>
        <mxCell id="REtOvarT4Qf_jJN79Ttz-75" value="" style="endArrow=classic;html=1;rounded=0;exitX=1.007;exitY=0.714;exitDx=0;exitDy=0;exitPerimeter=0;" edge="1" parent="1" source="REtOvarT4Qf_jJN79Ttz-28">
          <mxGeometry width="50" height="50" relative="1" as="geometry">
            <mxPoint x="390" y="830" as="sourcePoint" />
            <mxPoint x="580" y="780" as="targetPoint" />
          </mxGeometry>
        </mxCell>
        <mxCell id="REtOvarT4Qf_jJN79Ttz-76" value="" style="endArrow=classic;html=1;rounded=0;exitX=1;exitY=0.7;exitDx=0;exitDy=0;exitPerimeter=0;" edge="1" parent="1" source="REtOvarT4Qf_jJN79Ttz-73" target="REtOvarT4Qf_jJN79Ttz-49">
          <mxGeometry width="50" height="50" relative="1" as="geometry">
            <mxPoint x="390" y="830" as="sourcePoint" />
            <mxPoint x="440" y="780" as="targetPoint" />
          </mxGeometry>
        </mxCell>
        <mxCell id="REtOvarT4Qf_jJN79Ttz-77" value="" style="verticalLabelPosition=bottom;verticalAlign=top;html=1;shape=mxgraph.basic.rect;fillColor2=none;strokeWidth=1;size=20;indent=5;" vertex="1" parent="1">
          <mxGeometry x="870" y="120" width="740" height="890" as="geometry" />
        </mxCell>
      </root>
    </mxGraphModel>
  </diagram>
</mxfile>
